<mxfile host="app.diagrams.net" agent="Mozilla/5.0 (Windows NT 10.0; Win64; x64) AppleWebKit/537.36 (KHTML, like Gecko) Chrome/128.0.0.0 Safari/537.36" version="24.7.16">
  <diagram id="rRmtudpdEV8kB-wlNoaQ" name="Page-1">
    <mxGraphModel dx="1050" dy="522" grid="1" gridSize="10" guides="1" tooltips="1" connect="1" arrows="1" fold="1" page="1" pageScale="1" pageWidth="827" pageHeight="1169" math="0" shadow="0">
      <root>
        <mxCell id="0" />
        <mxCell id="1" parent="0" />
        <mxCell id="OLgAGGB-klX2j8NWGAoB-3" value="" style="edgeStyle=orthogonalEdgeStyle;rounded=0;orthogonalLoop=1;jettySize=auto;html=1;" parent="1" source="tulF2AGn9xkQMnw531Gr-1" target="OLgAGGB-klX2j8NWGAoB-1" edge="1">
          <mxGeometry relative="1" as="geometry" />
        </mxCell>
        <mxCell id="tulF2AGn9xkQMnw531Gr-1" value="Empezar" style="rounded=1;whiteSpace=wrap;html=1;" parent="1" vertex="1">
          <mxGeometry x="380" y="360" width="120" height="40" as="geometry" />
        </mxCell>
        <mxCell id="tulF2AGn9xkQMnw531Gr-2" value="Fin" style="rounded=1;whiteSpace=wrap;html=1;" parent="1" vertex="1">
          <mxGeometry x="40" y="200" width="120" height="40" as="geometry" />
        </mxCell>
        <mxCell id="tulF2AGn9xkQMnw531Gr-3" value="condición" style="rhombus;whiteSpace=wrap;html=1;" parent="1" vertex="1">
          <mxGeometry x="40" y="280" width="121" height="80" as="geometry" />
        </mxCell>
        <mxCell id="tulF2AGn9xkQMnw531Gr-12" value="acción" style="rounded=0;whiteSpace=wrap;html=1;" parent="1" vertex="1">
          <mxGeometry x="41" y="400" width="120" height="80" as="geometry" />
        </mxCell>
        <mxCell id="tGcxBd1fGb3jL6-7lItP-3" value="Completa el diagrama de flujo para seleccionar la velocidad de movimiento promedio.&lt;br&gt;&lt;p style=&quot;font-style: normal ; font-weight: normal ; letter-spacing: normal ; text-align: center ; text-indent: 0px ; text-transform: none ; word-spacing: 0px ; text-decoration: none ; margin: 0px ; font-stretch: normal ; line-height: normal ; font-size: 13px&quot;&gt;&lt;span style=&quot;background-color: initial;&quot;&gt;&amp;nbsp;&lt;/span&gt;&lt;br&gt;&lt;/p&gt;&lt;font style=&quot;&quot;&gt;&lt;span style=&quot;font-size: 13px; font-style: normal; font-weight: normal; letter-spacing: normal; text-align: center; text-indent: 0px; text-transform: none; word-spacing: 0px; text-decoration: none; display: inline; float: none;&quot;&gt;&amp;nbsp;&lt;/span&gt;&lt;br style=&quot;font-style: normal ; font-weight: normal ; letter-spacing: normal ; text-align: center ; text-indent: 0px ; text-transform: none ; word-spacing: 0px ; text-decoration: none&quot;&gt;&lt;span style=&quot;font-style: normal; font-weight: normal; letter-spacing: normal; text-align: center; text-indent: 0px; text-transform: none; word-spacing: 0px; text-decoration: none; display: inline; float: none;&quot;&gt;&lt;span style=&quot;&quot; class=&quot;Apple-converted-space&quot;&gt;&lt;font style=&quot;font-size: 13px;&quot;&gt;Los elementos se pueden copiar y rellenar con los nuevos datos.&lt;br&gt;&lt;/font&gt;&lt;/span&gt;&lt;/span&gt;&lt;/font&gt;" style="ellipse;shape=doubleEllipse;whiteSpace=wrap;html=1;strokeWidth=2;fillColor=#dae8fc;" parent="1" vertex="1">
          <mxGeometry x="300" y="50" width="290" height="290" as="geometry" />
        </mxCell>
        <mxCell id="OLgAGGB-klX2j8NWGAoB-5" value="" style="edgeStyle=orthogonalEdgeStyle;rounded=0;orthogonalLoop=1;jettySize=auto;html=1;" parent="1" source="OLgAGGB-klX2j8NWGAoB-1" target="OLgAGGB-klX2j8NWGAoB-4" edge="1">
          <mxGeometry relative="1" as="geometry" />
        </mxCell>
        <mxCell id="9O1ngfXjLoFQYk_32Zia-2" value="No" style="edgeLabel;html=1;align=center;verticalAlign=middle;resizable=0;points=[];" parent="OLgAGGB-klX2j8NWGAoB-5" vertex="1" connectable="0">
          <mxGeometry x="-0.17" y="-2" relative="1" as="geometry">
            <mxPoint as="offset" />
          </mxGeometry>
        </mxCell>
        <mxCell id="OLgAGGB-klX2j8NWGAoB-7" value="" style="edgeStyle=orthogonalEdgeStyle;rounded=0;orthogonalLoop=1;jettySize=auto;html=1;" parent="1" source="OLgAGGB-klX2j8NWGAoB-1" target="OLgAGGB-klX2j8NWGAoB-6" edge="1">
          <mxGeometry relative="1" as="geometry" />
        </mxCell>
        <mxCell id="9O1ngfXjLoFQYk_32Zia-1" value="Si" style="edgeLabel;html=1;align=center;verticalAlign=middle;resizable=0;points=[];" parent="OLgAGGB-klX2j8NWGAoB-7" vertex="1" connectable="0">
          <mxGeometry x="-0.0274" y="1" relative="1" as="geometry">
            <mxPoint as="offset" />
          </mxGeometry>
        </mxCell>
        <mxCell id="OLgAGGB-klX2j8NWGAoB-1" value="¿Son las 22:01 - 08:00?" style="rhombus;whiteSpace=wrap;html=1;" parent="1" vertex="1">
          <mxGeometry x="379" y="440" width="121" height="80" as="geometry" />
        </mxCell>
        <mxCell id="OLgAGGB-klX2j8NWGAoB-2" value="" style="endArrow=classic;html=1;rounded=0;" parent="1" target="OLgAGGB-klX2j8NWGAoB-1" edge="1">
          <mxGeometry width="50" height="50" relative="1" as="geometry">
            <mxPoint x="440" y="400" as="sourcePoint" />
            <mxPoint x="440" y="440" as="targetPoint" />
          </mxGeometry>
        </mxCell>
        <mxCell id="9O1ngfXjLoFQYk_32Zia-4" style="edgeStyle=orthogonalEdgeStyle;rounded=0;orthogonalLoop=1;jettySize=auto;html=1;exitX=0;exitY=0.5;exitDx=0;exitDy=0;entryX=1;entryY=0.5;entryDx=0;entryDy=0;" parent="1" source="OLgAGGB-klX2j8NWGAoB-4" target="9O1ngfXjLoFQYk_32Zia-3" edge="1">
          <mxGeometry relative="1" as="geometry" />
        </mxCell>
        <mxCell id="9O1ngfXjLoFQYk_32Zia-9" value="Si" style="edgeLabel;html=1;align=center;verticalAlign=middle;resizable=0;points=[];" parent="9O1ngfXjLoFQYk_32Zia-4" vertex="1" connectable="0">
          <mxGeometry x="0.0239" y="-1" relative="1" as="geometry">
            <mxPoint as="offset" />
          </mxGeometry>
        </mxCell>
        <mxCell id="9O1ngfXjLoFQYk_32Zia-7" style="edgeStyle=orthogonalEdgeStyle;rounded=0;orthogonalLoop=1;jettySize=auto;html=1;exitX=0.5;exitY=1;exitDx=0;exitDy=0;entryX=0.5;entryY=0;entryDx=0;entryDy=0;" parent="1" source="OLgAGGB-klX2j8NWGAoB-4" target="9O1ngfXjLoFQYk_32Zia-5" edge="1">
          <mxGeometry relative="1" as="geometry" />
        </mxCell>
        <mxCell id="9O1ngfXjLoFQYk_32Zia-10" value="No" style="edgeLabel;html=1;align=center;verticalAlign=middle;resizable=0;points=[];" parent="9O1ngfXjLoFQYk_32Zia-7" vertex="1" connectable="0">
          <mxGeometry x="-0.3917" y="-2" relative="1" as="geometry">
            <mxPoint as="offset" />
          </mxGeometry>
        </mxCell>
        <mxCell id="OLgAGGB-klX2j8NWGAoB-4" value="¿Son las 08:01 - 12:00?" style="rhombus;whiteSpace=wrap;html=1;" parent="1" vertex="1">
          <mxGeometry x="379.5" y="630" width="121" height="80" as="geometry" />
        </mxCell>
        <mxCell id="qot3RLC0ccWqVGcT97UY-5" style="edgeStyle=orthogonalEdgeStyle;rounded=0;orthogonalLoop=1;jettySize=auto;html=1;exitX=0;exitY=0.5;exitDx=0;exitDy=0;entryX=0.25;entryY=1;entryDx=0;entryDy=0;" edge="1" parent="1" source="OLgAGGB-klX2j8NWGAoB-6" target="qot3RLC0ccWqVGcT97UY-1">
          <mxGeometry relative="1" as="geometry">
            <Array as="points">
              <mxPoint x="80" y="555" />
              <mxPoint x="80" y="1160" />
              <mxPoint x="384" y="1160" />
            </Array>
          </mxGeometry>
        </mxCell>
        <mxCell id="OLgAGGB-klX2j8NWGAoB-6" value="Establece la velocidad en 45 km/h" style="whiteSpace=wrap;html=1;" parent="1" vertex="1">
          <mxGeometry x="130" y="525" width="120" height="60" as="geometry" />
        </mxCell>
        <mxCell id="OLgAGGB-klX2j8NWGAoB-10" value="Empezar" style="rounded=1;whiteSpace=wrap;html=1;" parent="1" vertex="1">
          <mxGeometry x="40" y="120" width="120" height="40" as="geometry" />
        </mxCell>
        <mxCell id="qot3RLC0ccWqVGcT97UY-4" style="edgeStyle=orthogonalEdgeStyle;rounded=0;orthogonalLoop=1;jettySize=auto;html=1;exitX=0;exitY=0.5;exitDx=0;exitDy=0;entryX=0;entryY=0.5;entryDx=0;entryDy=0;" edge="1" parent="1" source="9O1ngfXjLoFQYk_32Zia-3" target="qot3RLC0ccWqVGcT97UY-1">
          <mxGeometry relative="1" as="geometry">
            <Array as="points">
              <mxPoint x="100" y="670" />
              <mxPoint x="100" y="1140" />
              <mxPoint x="354" y="1140" />
            </Array>
          </mxGeometry>
        </mxCell>
        <mxCell id="9O1ngfXjLoFQYk_32Zia-3" value="Establece la velocidad en 30 km/h" style="whiteSpace=wrap;html=1;" parent="1" vertex="1">
          <mxGeometry x="130" y="640" width="120" height="60" as="geometry" />
        </mxCell>
        <mxCell id="9O1ngfXjLoFQYk_32Zia-8" style="edgeStyle=orthogonalEdgeStyle;rounded=0;orthogonalLoop=1;jettySize=auto;html=1;exitX=0.5;exitY=1;exitDx=0;exitDy=0;entryX=0.5;entryY=0;entryDx=0;entryDy=0;" parent="1" source="9O1ngfXjLoFQYk_32Zia-5" target="9O1ngfXjLoFQYk_32Zia-6" edge="1">
          <mxGeometry relative="1" as="geometry" />
        </mxCell>
        <mxCell id="9O1ngfXjLoFQYk_32Zia-11" value="No" style="edgeLabel;html=1;align=center;verticalAlign=middle;resizable=0;points=[];" parent="9O1ngfXjLoFQYk_32Zia-8" vertex="1" connectable="0">
          <mxGeometry x="-0.4164" y="3" relative="1" as="geometry">
            <mxPoint as="offset" />
          </mxGeometry>
        </mxCell>
        <mxCell id="9O1ngfXjLoFQYk_32Zia-13" style="edgeStyle=orthogonalEdgeStyle;rounded=0;orthogonalLoop=1;jettySize=auto;html=1;exitX=0;exitY=0.5;exitDx=0;exitDy=0;entryX=1;entryY=0.5;entryDx=0;entryDy=0;" parent="1" source="9O1ngfXjLoFQYk_32Zia-5" target="9O1ngfXjLoFQYk_32Zia-12" edge="1">
          <mxGeometry relative="1" as="geometry" />
        </mxCell>
        <mxCell id="9O1ngfXjLoFQYk_32Zia-16" value="Si" style="edgeLabel;html=1;align=center;verticalAlign=middle;resizable=0;points=[];" parent="9O1ngfXjLoFQYk_32Zia-13" vertex="1" connectable="0">
          <mxGeometry x="-0.3147" y="-2" relative="1" as="geometry">
            <mxPoint as="offset" />
          </mxGeometry>
        </mxCell>
        <mxCell id="9O1ngfXjLoFQYk_32Zia-5" value="¿Son las 12:01 - 18:00?" style="rhombus;whiteSpace=wrap;html=1;" parent="1" vertex="1">
          <mxGeometry x="379" y="770" width="121" height="80" as="geometry" />
        </mxCell>
        <mxCell id="9O1ngfXjLoFQYk_32Zia-15" style="edgeStyle=orthogonalEdgeStyle;rounded=0;orthogonalLoop=1;jettySize=auto;html=1;exitX=0;exitY=0.5;exitDx=0;exitDy=0;entryX=1;entryY=0.5;entryDx=0;entryDy=0;" parent="1" source="9O1ngfXjLoFQYk_32Zia-6" target="9O1ngfXjLoFQYk_32Zia-14" edge="1">
          <mxGeometry relative="1" as="geometry" />
        </mxCell>
        <mxCell id="9O1ngfXjLoFQYk_32Zia-17" value="Si" style="edgeLabel;html=1;align=center;verticalAlign=middle;resizable=0;points=[];" parent="9O1ngfXjLoFQYk_32Zia-15" vertex="1" connectable="0">
          <mxGeometry x="-0.3508" y="2" relative="1" as="geometry">
            <mxPoint as="offset" />
          </mxGeometry>
        </mxCell>
        <mxCell id="9O1ngfXjLoFQYk_32Zia-18" style="edgeStyle=orthogonalEdgeStyle;rounded=0;orthogonalLoop=1;jettySize=auto;html=1;exitX=1;exitY=0.5;exitDx=0;exitDy=0;entryX=0.5;entryY=0;entryDx=0;entryDy=0;" parent="1" source="9O1ngfXjLoFQYk_32Zia-6" target="OLgAGGB-klX2j8NWGAoB-1" edge="1">
          <mxGeometry relative="1" as="geometry">
            <Array as="points">
              <mxPoint x="521" y="950" />
              <mxPoint x="521" y="440" />
            </Array>
          </mxGeometry>
        </mxCell>
        <mxCell id="9O1ngfXjLoFQYk_32Zia-19" value="no" style="edgeLabel;html=1;align=center;verticalAlign=middle;resizable=0;points=[];" parent="9O1ngfXjLoFQYk_32Zia-18" vertex="1" connectable="0">
          <mxGeometry x="-0.6835" y="4" relative="1" as="geometry">
            <mxPoint as="offset" />
          </mxGeometry>
        </mxCell>
        <mxCell id="9O1ngfXjLoFQYk_32Zia-6" value="¿Son las 18:01 - 22:00?" style="rhombus;whiteSpace=wrap;html=1;" parent="1" vertex="1">
          <mxGeometry x="380" y="910" width="121" height="80" as="geometry" />
        </mxCell>
        <mxCell id="qot3RLC0ccWqVGcT97UY-3" style="edgeStyle=orthogonalEdgeStyle;rounded=0;orthogonalLoop=1;jettySize=auto;html=1;exitX=0;exitY=0.5;exitDx=0;exitDy=0;entryX=0;entryY=0.75;entryDx=0;entryDy=0;" edge="1" parent="1" source="9O1ngfXjLoFQYk_32Zia-12" target="qot3RLC0ccWqVGcT97UY-1">
          <mxGeometry relative="1" as="geometry" />
        </mxCell>
        <mxCell id="9O1ngfXjLoFQYk_32Zia-12" value="Establece la velocidad en 40 km/h" style="whiteSpace=wrap;html=1;" parent="1" vertex="1">
          <mxGeometry x="130" y="780" width="120" height="60" as="geometry" />
        </mxCell>
        <mxCell id="qot3RLC0ccWqVGcT97UY-2" style="edgeStyle=orthogonalEdgeStyle;rounded=0;orthogonalLoop=1;jettySize=auto;html=1;exitX=0.5;exitY=1;exitDx=0;exitDy=0;entryX=0;entryY=0.5;entryDx=0;entryDy=0;" edge="1" parent="1" source="9O1ngfXjLoFQYk_32Zia-14" target="qot3RLC0ccWqVGcT97UY-1">
          <mxGeometry relative="1" as="geometry" />
        </mxCell>
        <mxCell id="9O1ngfXjLoFQYk_32Zia-14" value="Establece la velocidad en 25 km/h" style="whiteSpace=wrap;html=1;" parent="1" vertex="1">
          <mxGeometry x="130" y="920" width="120" height="60" as="geometry" />
        </mxCell>
        <mxCell id="qot3RLC0ccWqVGcT97UY-1" value="Fin" style="rounded=1;whiteSpace=wrap;html=1;" vertex="1" parent="1">
          <mxGeometry x="354" y="1080" width="120" height="60" as="geometry" />
        </mxCell>
      </root>
    </mxGraphModel>
  </diagram>
</mxfile>
